<svg width="140" height="125" fill="none" xmlns="http://www.w3.org/2000/svg"><g clip-path="url(#clip0)" fill="#000"><path d="M117.031 85.428c12.665 0 22.969-9.2 22.969-20.507 0-11.308-10.304-20.508-22.969-20.508H76.289c-1.51 0-2.735 1.093-2.735 2.441 0 1.349 1.225 2.442 2.735 2.442h32.458v12.372c0 14.132-6.725 27.55-18.481 36.965H37.453c.08-.07.163-.138.243-.209 3.165-2.825 5.156-6.391 5.607-10.041.476-3.852-.795-7.342-3.578-9.826-4.406-3.934-11.563-4.25-17.675-1.26a44.609 44.609 0 01-2.828-15.629V49.296H51.68c1.51 0 2.734-1.093 2.734-2.442 0-1.348-1.224-2.441-2.734-2.441H16.487c-1.51 0-2.734 1.093-2.734 2.441v14.814c0 6.42 1.25 12.704 3.71 18.71-3.158 2.824-5.146 6.385-5.596 10.031-.381 3.084.36 5.934 2.098 8.224H2.735c-1.51 0-2.735 1.093-2.735 2.441 0 7.808 7.115 14.16 15.86 14.16h8.477c1.27 5.565 6.795 9.766 13.397 9.766h52.5c6.603 0 12.127-4.201 13.397-9.766h8.478c8.745 0 15.859-6.352 15.859-14.16 0-1.348-1.224-2.441-2.734-2.441H98.048c4.09-3.961 7.473-8.415 10.069-13.204h8.914zm-79.164 2.42c-.315 2.55-1.75 5.08-4.038 7.124-2.288 2.043-5.122 3.323-7.979 3.605a10.525 10.525 0 01-2.913-.101c-.284-3.042 1.916-5.924 5.335-6.717 4.513-1.047 7.82-4.16 8.99-7.907.574 1.16.787 2.524.605 3.995zm-20.565 3.097c.316-2.551 1.75-5.081 4.038-7.124 2.697-2.408 6.074-3.676 9.097-3.676.616 0 1.217.054 1.794.16.29 3.046-1.911 5.934-5.334 6.728-4.513 1.047-7.82 4.16-8.99 7.908-.574-1.162-.787-2.525-.605-3.996zm94.807 19.406h-10.937c-1.51 0-2.735 1.093-2.735 2.442 0 4.038-3.68 7.324-8.203 7.324h-52.5c-4.523 0-8.203-3.286-8.203-7.324 0-1.349-1.224-2.442-2.734-2.442H15.859c-4.783 0-8.822-2.9-10.025-6.836h116.301c-1.203 3.936-5.242 6.836-10.026 6.836zm4.922-61.055c9.65 0 17.5 7.009 17.5 15.625 0 8.615-7.85 15.625-17.5 15.625h-6.589a50.205 50.205 0 002.011-5.86h4.578c6.031 0 10.938-4.38 10.938-9.765 0-5.385-4.907-9.766-10.938-9.766h-2.815v-5.86h2.815zm-2.815 10.742h2.815c3.016 0 5.469 2.19 5.469 4.883 0 2.692-2.453 4.882-5.469 4.882h-3.502c.451-2.674.687-5.391.687-8.135v-1.63zM84.109 34.162c-1.068.954-1.068 2.5 0 3.453a2.901 2.901 0 001.933.715c.7 0 1.4-.238 1.934-.715 4.828-4.311 4.828-11.326 0-15.637-1.307-1.166-2.026-2.716-2.026-4.366 0-1.649.72-3.2 2.026-4.365 1.067-.954 1.067-2.5 0-3.453-1.068-.953-2.799-.953-3.868 0-2.339 2.088-3.627 4.865-3.627 7.818 0 2.954 1.288 5.73 3.627 7.819 2.697 2.407 2.697 6.324 0 8.731zm-44.116 0c-1.068.954-1.068 2.5 0 3.453a2.901 2.901 0 001.933.715c.7 0 1.4-.238 1.934-.715 4.828-4.311 4.828-11.326 0-15.637-2.696-2.407-2.696-6.324 0-8.731 1.068-.954 1.068-2.5 0-3.453-1.068-.954-2.8-.954-3.867 0-4.829 4.31-4.829 11.326 0 15.637 2.696 2.407 2.696 6.324 0 8.731zm22.057 0c-1.067.954-1.067 2.5 0 3.453a2.9 2.9 0 001.934.715c.7 0 1.4-.239 1.934-.715 6.23-5.563 6.23-14.614 0-20.176-1.985-1.773-3.079-4.13-3.079-6.636 0-2.507 1.094-4.863 3.079-6.635 1.067-.954 1.067-2.5 0-3.453-1.068-.953-2.799-.953-3.868 0-3.017 2.695-4.68 6.277-4.68 10.088 0 3.81 1.663 7.394 4.68 10.088 4.099 3.66 4.099 9.612 0 13.271z"/><path d="M63.984 44.414c-.719 0-1.424.259-1.933.713-.508.456-.801 1.084-.801 1.728 0 .642.292 1.272.801 1.726a2.931 2.931 0 001.933.716c.72 0 1.425-.261 1.933-.716.509-.454.802-1.084.802-1.726 0-.644-.293-1.272-.802-1.728-.508-.454-1.213-.713-1.933-.713z"/></g><defs><clipPath id="clip0"><path fill="#fff" d="M0 0h140v125H0z"/></clipPath></defs></svg>