<svg width="140" height="125" fill="none" xmlns="http://www.w3.org/2000/svg"><path d="M129.062 106.297v-14.5c0-1.078-.98-1.953-2.187-1.953h-19.687V52.008c2.436-.418 4.935-.305 7.315.406a20.88 20.88 0 005.939.858c1.426 0 2.848-.16 4.246-.448v31.16c0 1.079.98 1.954 2.187 1.954 1.207 0 2.187-.876 2.187-1.954V13.672c0-5.385-4.906-9.766-10.937-9.766H105c-1.207 0-2.188.875-2.188 1.953v5.86H28.84c.906-2.268 3.312-3.906 6.16-3.906h61.25c1.207 0 2.188-.875 2.188-1.954 0-1.078-.98-1.953-2.188-1.953H35c-6.03 0-10.938 4.381-10.938 9.766v31.25c0 .518.23 1.016.641 1.38l8.11 7.241v7.004h-4.264l-15.238-1.361c-2.28-.202-4.563.466-6.263 1.84-1.7 1.372-2.673 3.335-2.673 5.38s.973 4.006 2.673 5.38c1.499 1.21 3.452 1.874 5.458 1.874.267 0 .536-.012.805-.035l15.238-1.36h8.639c0 .422.153.835.437 1.172 1.98 2.36 5.012 3.711 8.313 3.711 3.3 0 6.332-1.351 8.312-3.71.284-.338.438-.75.438-1.172v-7.813h2.187c1.208 0 2.188-.875 2.188-1.953v-8.957l4.374-3.906v55.832h-6.619c1.39-1.637 2.245-3.653 2.245-5.86V83.984c0-1.078-.98-1.953-2.188-1.953-1.208 0-2.188.875-2.188 1.953V99.61c0 3.231-2.944 5.86-6.562 5.86h-8.75c-3.618 0-6.563-2.629-6.563-5.86V85.938h15.313c1.208 0 2.188-.876 2.188-1.954 0-1.078-.98-1.953-2.188-1.953H26.25c-6.03 0-10.938 4.381-10.938 9.766s4.907 9.765 10.938 9.765h2.408c.35 1.53 1.136 2.905 2.188 4.084-5.093.833-8.971 4.805-8.971 9.588v3.907c0 1.078.98 1.953 2.188 1.953h48.124c1.208 0 2.188-.875 2.188-1.953 0-1.079-.98-1.953-2.188-1.953H26.25v-1.954c0-3.23 2.944-5.859 6.563-5.859h91.875c3.618 0 6.562 2.629 6.562 5.859v1.954H80.937c-1.207 0-2.187.874-2.187 1.953 0 1.078.98 1.953 2.188 1.953h52.5c1.207 0 2.187-.875 2.187-1.953v-3.907c0-3.994-2.706-7.425-6.563-8.937zm-109.375-14.5c0-3.23 2.945-5.86 6.563-5.86h2.188v11.72H26.25c-3.618 0-6.563-2.63-6.563-5.86zm96.2-43.09a20.946 20.946 0 00-8.699-.69v-24.58h17.5v25.311c-2.884.781-5.953.807-8.801-.041zm-8.699-40.895h10.937c3.618 0 6.563 2.63 6.563 5.86v5.86h-17.5V7.811zM12.876 69.74c-1.061.096-2.096-.205-2.892-.85-.796-.644-1.234-1.525-1.234-2.484 0-.959.438-1.84 1.234-2.482a3.957 3.957 0 012.507-.867c.129 0 .256.005.385.017l13.374 1.194v4.277L12.876 69.74zm17.749-1.38v-3.907h6.563v3.906h-6.563zm19.688 3.199c-2.265 2.154-6.486 2.154-8.75 0v-7.106h8.75v7.106zm4.374-11.012h-17.5v-5.86h17.5v5.86zm1.282-9.766H35.906l-4.375-3.906h28.813l-4.375 3.906zM96.25 42.97H28.437V15.625h74.375v89.844h-35V46.875H96.25c1.207 0 2.188-.875 2.188-1.953s-.98-1.953-2.188-1.953zm10.938 62.5V93.75h17.5v11.719h-17.5z" fill="#000"/><path d="M54.688 21.484h-7.399a9.28 9.28 0 00-5.727-1.953c-4.825 0-8.75 3.504-8.75 7.813 0 4.308 3.925 7.812 8.75 7.812a9.29 9.29 0 005.727-1.953h7.398c3.619 0 6.563-2.629 6.563-5.86 0-3.23-2.944-5.859-6.563-5.859zM41.562 31.25c-2.412 0-4.374-1.752-4.374-3.906 0-2.155 1.962-3.907 4.374-3.907 2.413 0 4.376 1.752 4.376 3.907 0 2.154-1.963 3.906-4.376 3.906zm13.126-1.953h-4.686c.184-.629.31-1.276.31-1.953 0-.678-.126-1.325-.31-1.953h4.685c1.206 0 2.188.877 2.188 1.953s-.982 1.953-2.188 1.953zM94.063 56.64H78.75c-1.207 0-2.188.876-2.188 1.954 0 1.078.98 1.953 2.188 1.953h15.313c1.207 0 2.187-.875 2.187-1.953s-.98-1.953-2.188-1.953zm0 7.813H78.75c-1.207 0-2.188.875-2.188 1.953s.98 1.953 2.188 1.953h15.313c1.207 0 2.187-.875 2.187-1.953s-.98-1.953-2.188-1.953zm0 7.813H78.75c-1.207 0-2.188.875-2.188 1.953s.98 1.953 2.188 1.953h15.313c1.207 0 2.187-.875 2.187-1.953s-.98-1.953-2.188-1.953z" fill="#000"/></svg>