<svg width="140" height="125" fill="none" xmlns="http://www.w3.org/2000/svg"><g clip-path="url(#clip0)"><path d="M129.283 9.603l-.108-.093a.108.108 0 01-.011-.01c-18.062-15.977-51.12-11.16-74.677 9.874a77.503 77.503 0 00-9.467 10.08c-14.063-1.86-26.44 1.266-34.942 8.857l-.098.09-.02.019C-7.074 53.802-1.671 84.782 21.679 105.63c23.643 21.11 58.386 25.546 75.398 10.357l.061-.057.033-.03c8.432-7.588 11.901-18.602 9.825-31.111a82.246 82.246 0 0011.29-8.452c23.68-21.143 28.979-50.68 10.998-66.734zm-68.996 14.95c18.24-16.287 42.247-21.442 57.537-13.627l-.185.056c-9.104 2.768-17.164 7.546-23.307 13.818-5.842 5.963-9.953 13.286-11.95 21.241-8.645-6.987-18.525-12.091-28.646-14.83a71.137 71.137 0 016.55-6.658zm-32.81 75.899c-17.194-15.353-24.01-37.69-15.848-51.73 6.302 16.51 22.12 28.873 41.283 32.264 16.506 2.92 30.023 13.602 35.277 27.875l1.255 3.41c-14.49 10.378-42.66 5.419-61.966-11.819zm68.144 5.196c-6.414-16.314-22.069-28.476-41.115-31.846-16.305-2.886-29.762-13.406-35.119-27.455l-1.66-4.353c15.057-11.056 42.346-5.65 61.949 11.852 9.488 8.472 16.872 19.46 19.069 31.228 1.469 7.874.36 14.965-3.124 20.574zm9.406-28.641c-2.965-8.735-8.406-17.268-15.834-24.8.36-1.163.679-2.34.94-3.521 3.27-14.725 14.258-25.94 30.149-30.771l4.88-1.483c12.343 13.306 7.083 37.083-12.678 54.727a74.388 74.388 0 01-7.457 5.848z" fill="#000"/></g><defs><clipPath id="clip0"><path fill="#fff" d="M0 0h140v125H0z"/></clipPath></defs></svg>