<svg width="55" height="55" fill="none" xmlns="http://www.w3.org/2000/svg"><path d="M46.946 8.054C41.75 2.86 34.846 0 27.5 0 20.154 0 13.249 2.86 8.054 8.054 2.86 13.25 0 20.154 0 27.5c0 7.346 2.86 14.251 8.054 19.446C13.25 52.14 20.154 55 27.5 55c7.346 0 14.251-2.86 19.446-8.054C52.14 41.75 55 34.846 55 27.5c0-7.346-2.86-14.251-8.054-19.446zM45.73 45.73c-4.87 4.87-11.344 7.551-18.23 7.551-6.886 0-13.36-2.681-18.23-7.55C4.4 40.86 1.719 34.385 1.719 27.5c0-6.886 2.681-13.36 7.55-18.23C14.14 4.4 20.615 1.719 27.5 1.719c6.886 0 13.36 2.681 18.23 7.55 4.87 4.87 7.551 11.345 7.551 18.231 0 6.886-2.681 13.36-7.55 18.23z" fill="#000"/><path d="M5.156 27.5C5.156 15.18 15.18 5.156 27.5 5.156c4.444 0 8.736 1.301 12.413 3.763a.86.86 0 10.956-1.429A23.95 23.95 0 0027.5 3.437a23.905 23.905 0 00-17.015 7.048A23.905 23.905 0 003.438 27.5c0 5.93 2.175 11.627 6.126 16.041a.857.857 0 001.213.067.86.86 0 00.068-1.213A22.305 22.305 0 015.156 27.5zM47.51 14.131a.86.86 0 10-1.428.956A22.237 22.237 0 0149.844 27.5c0 12.32-10.023 22.344-22.344 22.344a22.393 22.393 0 01-14.069-4.985.86.86 0 10-1.083 1.335A24.116 24.116 0 0027.5 51.562c6.428 0 12.47-2.502 17.015-7.047A23.905 23.905 0 0051.563 27.5a23.95 23.95 0 00-4.053-13.369zm-5.115-3.286c.577.517 1.135 1.07 1.655 1.644a.857.857 0 001.215.06.86.86 0 00.058-1.215 24.301 24.301 0 00-1.782-1.77.86.86 0 00-1.146 1.28z" fill="#000"/><path d="M27.5 11.172a.86.86 0 00.86-.86V7.735a.86.86 0 00-1.72 0v2.579a.86.86 0 00.86.859zm-.86 33.516v2.578a.86.86 0 001.72 0v-2.578a.86.86 0 00-1.72 0zM11.172 27.5a.86.86 0 00-.86-.86H7.735a.86.86 0 000 1.72h2.579a.86.86 0 00.859-.86zm32.656 0c0 .475.385.86.86.86h2.578a.86.86 0 000-1.72h-2.578a.86.86 0 00-.86.86zM19.65 12.185l-1.288-2.232a.86.86 0 00-1.489.86l1.29 2.232a.86.86 0 101.488-.86zm17.188 29.77a.86.86 0 00-1.488.86l1.289 2.232a.86.86 0 101.488-.86l-1.289-2.232zm-26.455-3.713a.856.856 0 00.43-.115l2.232-1.289a.86.86 0 00-.86-1.489l-2.232 1.29a.86.86 0 00.43 1.603zm32.003-18.476a.856.856 0 00.429-.115l2.232-1.29a.86.86 0 00-.859-1.488l-2.233 1.289a.86.86 0 00.43 1.604zM37.813 9.638a.86.86 0 00-1.174.315l-1.29 2.232a.86.86 0 001.49.86l1.288-2.233a.86.86 0 00-.314-1.174zM19.336 41.64a.86.86 0 00-1.174.315l-1.289 2.233a.86.86 0 101.489.86l1.289-2.233a.86.86 0 00-.315-1.174zm22.619-4.802l2.232 1.289a.86.86 0 10.86-1.488l-2.233-1.29a.86.86 0 00-.86 1.489zm-28.91-18.676l-2.233-1.289a.86.86 0 10-.86 1.488l2.233 1.29a.859.859 0 10.86-1.489zM33.483 38.72a.86.86 0 00.743-1.29l-4.767-8.256a2.573 2.573 0 00-1.1-4.104V13.75a.86.86 0 00-1.718 0v11.32a2.582 2.582 0 00-1.72 2.43 2.581 2.581 0 003.05 2.534l4.767 8.257a.86.86 0 00.745.43zM26.64 27.5a.86.86 0 011.718 0 .86.86 0 01-1.718 0z" fill="#000"/></svg>