<svg width="51" height="51" xmlns="http://www.w3.org/2000/svg"><g clip-path="url(#clip0)"><path d="M50.95 14.994c-.12-2.71-.558-4.573-1.185-6.187a12.446 12.446 0 00-2.95-4.523 12.551 12.551 0 00-4.513-2.939C40.68.717 38.825.279 36.115.16 33.386.03 32.52 0 25.595 0c-6.925 0-7.791.03-10.511.15-2.71.119-4.573.558-6.187 1.185a12.444 12.444 0 00-4.523 2.949 12.557 12.557 0 00-2.94 4.513C.808 10.421.37 12.274.25 14.984c-.13 2.73-.16 3.597-.16 10.521 0 6.924.03 7.79.15 10.51.12 2.71.558 4.574 1.186 6.188a12.576 12.576 0 002.949 4.523 12.552 12.552 0 004.513 2.939c1.624.628 3.477 1.066 6.187 1.185 2.72.12 3.587.15 10.51.15 6.925 0 7.792-.03 10.512-.15 2.71-.12 4.573-.557 6.186-1.185a13.045 13.045 0 007.463-7.462c.627-1.624 1.066-3.477 1.185-6.187.12-2.72.15-3.587.15-10.511 0-6.924-.01-7.79-.13-10.51zm-4.593 20.823c-.11 2.49-.528 3.835-.876 4.732a8.46 8.46 0 01-4.843 4.842c-.896.349-2.25.767-4.732.877-2.69.12-3.497.149-10.301.149-6.805 0-7.622-.03-10.302-.15-2.49-.109-3.836-.527-4.733-.876a7.849 7.849 0 01-2.928-1.903 7.93 7.93 0 01-1.904-2.929c-.348-.897-.767-2.252-.876-4.732-.12-2.69-.15-3.497-.15-10.302s.03-7.622.15-10.302c.11-2.49.528-3.835.876-4.732a7.752 7.752 0 011.914-2.93A7.917 7.917 0 0110.58 5.66c.896-.349 2.251-.767 4.732-.877 2.69-.12 3.497-.15 10.301-.15 6.815 0 7.622.03 10.302.15 2.491.11 3.836.528 4.733.877a7.842 7.842 0 012.929 1.903 7.927 7.927 0 011.903 2.929c.348.897.767 2.251.876 4.732.12 2.69.15 3.497.15 10.302s-.03 7.602-.15 10.292z"/><path d="M25.595 12.404c-7.233 0-13.102 5.868-13.102 13.101 0 7.233 5.869 13.101 13.102 13.101 7.233 0 13.1-5.868 13.1-13.101 0-7.233-5.867-13.101-13.1-13.101zm0 21.6a8.5 8.5 0 01-8.499-8.499 8.5 8.5 0 118.498 8.498zm16.678-22.118a3.059 3.059 0 11-6.118 0 3.059 3.059 0 016.118 0z"/></g><defs><clipPath id="clip0"><path d="M0 0h51v51H0z"/></clipPath></defs></svg>