<svg width="55" height="55" fill="none" xmlns="http://www.w3.org/2000/svg"><g clip-path="url(#clip0_11:63)"><path d="M52.18 9.167H2.82A2.829 2.829 0 000 11.987v31.026c0 1.551 1.27 2.82 2.82 2.82h49.36c1.55 0 2.82-1.269 2.82-2.82V11.987c0-1.551-1.27-2.82-2.82-2.82zm-1.059 2.115l-21.999 16.5c-.395.301-1.002.49-1.622.487-.62.002-1.227-.186-1.623-.487L3.88 11.282h47.24zM39.371 28.87l11.986 14.808c.012.014.027.026.04.04H3.603c.013-.015.028-.026.04-.04L15.63 28.87a1.058 1.058 0 00-1.645-1.332L2.116 42.203V12.604l22.494 16.87c.845.63 1.874.907 2.89.91 1.016-.002 2.046-.28 2.892-.91l22.493-16.87v29.598L41.014 27.54a1.057 1.057 0 10-1.644 1.332z" fill="#000"/></g><defs><clipPath id="clip0_11:63"><path fill="#fff" d="M0 0h55v55H0z"/></clipPath></defs></svg>