<svg width="51" height="51" xmlns="http://www.w3.org/2000/svg"><path d="M38.21 0H12.75C5.748 0 0 5.748 0 12.79v25.46C0 45.252 5.748 51 12.75 51h25.46C45.252 51 51 45.252 51 38.21V12.79C51 5.749 45.252 0 38.21 0zM24.123 10.483c.08-1.254 1.255-.81 1.862-.89 7.61.243 14.166 7.083 14.085 14.45 0 .728.243 1.78-.85 1.78-1.052 0-.769-1.092-.89-1.82-1.012-7.813-4.655-11.496-12.588-12.71-.648-.081-1.66.04-1.62-.81zm11.374 13.884c-1.215.162-.972-.89-1.093-1.579-.81-4.776-2.51-6.517-7.407-7.569-.729-.162-1.862-.04-1.66-1.133.162-1.053 1.174-.688 1.943-.607 4.898.566 8.905 4.735 8.864 9.31-.08.485.243 1.416-.647 1.578zm-3.036-2.51c0 .648-.081 1.255-.81 1.336-.526.08-.85-.364-.93-.89-.203-1.944-1.255-3.117-3.28-3.441-.606-.081-1.173-.283-.89-1.093.203-.526.689-.607 1.215-.607 2.185-.04 4.695 2.51 4.695 4.695zm7.69 14.936c-.85 2.307-3.723 4.655-6.193 4.614-.364-.08-1.052-.202-1.659-.445-10.848-4.574-18.74-12.103-23.193-22.87-1.497-3.601.081-6.678 3.845-7.892a2.902 2.902 0 012.024 0c1.62.567 5.707 6.112 5.788 7.731.081 1.255-.81 1.943-1.66 2.51-1.659 1.092-1.659 2.469-.93 4.047 1.578 3.481 4.29 5.91 7.812 7.448 1.255.566 2.51.526 3.36-.77 1.537-2.306 3.44-2.185 5.504-.768 1.052.728 2.105 1.416 3.076 2.185 1.336 1.093 3.036 1.984 2.226 4.21z"/></svg>