<svg width="51" height="51" fill="none" xmlns="http://www.w3.org/2000/svg"><g clip-path="url(#clip0)"><path d="M47.75 0H3.257A3.255 3.255 0 000 3.253v44.494A3.255 3.255 0 003.257 51h44.49A3.255 3.255 0 0051 47.747V3.253A3.247 3.247 0 0047.75 0zm-5.445 31.076c.932.95 2.955 2.545 2.588 4.168-.339 1.49-2.563.947-4.722 1.033-2.465.104-3.926.158-5.41-1.033-.697-.565-1.108-1.234-1.777-1.983-.608-.677-1.375-1.89-2.419-1.843-1.875.094-1.288 2.707-1.954 4.488-10.422 1.641-14.608-4.797-18.3-11.045-1.789-3.027-4.373-9.526-4.373-9.526l7.37-.025s2.365 4.3 2.991 5.409c.533.943 1.12 1.691 1.724 2.534.508.698 1.31 2.065 2.188 1.954 1.43-.184 1.688-5.726.803-7.583-.353-.752-1.198-1.015-2.073-1.27.295-1.865 8.267-2.253 9.555-.807 1.872 2.102-1.295 7.954 1.267 9.66 3.599-1.886 6.672-9.782 6.672-9.782l8.63.054s-1.35 4.268-2.764 6.161c-.824 1.109-3.559 3.578-3.45 5.41.086 1.45 2.31 2.86 3.454 4.026z" fill="#fff"/></g><defs><clipPath id="clip0"><path fill="#fff" d="M0 0h51v51H0z"/></clipPath></defs></svg>