<svg width="55" height="55" viewBox="0 0 55 55" fill="none" xmlns="http://www.w3.org/2000/svg">
<path d="M46.9455 8.05449C41.7513 2.86043 34.8455 0 27.5 0C20.1545 0 13.2487 2.86043 8.05449 8.05449C2.86032 13.2486 0 20.1545 0 27.5C0 34.8455 2.86043 41.7513 8.05449 46.9455C13.2486 52.1397 20.1545 55 27.5 55C34.8455 55 41.7513 52.1396 46.9455 46.9455C52.1397 41.7514 55 34.8455 55 27.5C55 20.1545 52.1396 13.2487 46.9455 8.05449ZM45.7301 45.7301C40.8607 50.5996 34.3864 53.2812 27.5 53.2812C20.6136 53.2812 14.1393 50.5996 9.26986 45.7301C4.40043 40.8607 1.71875 34.3864 1.71875 27.5C1.71875 20.6136 4.40043 14.1393 9.26986 9.26986C14.1393 4.40043 20.6136 1.71875 27.5 1.71875C34.3864 1.71875 40.8607 4.40043 45.7301 9.26986C50.5996 14.1393 53.2812 20.6136 53.2812 27.5C53.2812 34.3864 50.5996 40.8607 45.7301 45.7301Z" fill="black"/>
<path d="M5.15625 27.5C5.15625 15.1797 15.1797 5.15625 27.5 5.15625C31.9438 5.15625 36.2362 6.45724 39.9131 8.91859C40.3075 9.18264 40.8413 9.07693 41.1053 8.68248C41.3693 8.28813 41.2636 7.75435 40.8692 7.49031C36.9084 4.83893 32.2854 3.4375 27.5 3.4375C21.0726 3.4375 15.03 5.94043 10.4852 10.4852C5.94043 15.03 3.4375 21.0726 3.4375 27.5C3.4375 33.4297 5.61322 39.1265 9.56398 43.5411C9.73371 43.7308 9.96875 43.8274 10.2046 43.8274C10.4086 43.8274 10.6135 43.7552 10.7774 43.6083C11.1311 43.2918 11.1612 42.7485 10.8447 42.3949C7.17653 38.2959 5.15625 33.0061 5.15625 27.5Z" fill="black"/>
<path d="M47.5099 14.131C47.2459 13.7366 46.7121 13.6309 46.3178 13.8949C45.9234 14.159 45.8176 14.6927 46.0816 15.0871C48.5429 18.7639 49.8439 23.0563 49.8439 27.5C49.8439 39.8203 39.8205 49.8438 27.5001 49.8438C22.3887 49.8438 17.3922 48.0735 13.4312 44.8593C13.0626 44.5602 12.5214 44.6165 12.2224 44.9851C11.9233 45.3536 11.9796 45.8948 12.3482 46.1939C16.6144 49.6559 21.9955 51.5625 27.5001 51.5625C33.9275 51.5625 39.9701 49.0596 44.5149 44.5148C49.0597 39.97 51.5626 33.9274 51.5626 27.5C51.5626 22.7147 50.1612 18.0917 47.5099 14.131Z" fill="black"/>
<path d="M42.3947 10.8448C42.9725 11.3618 43.5296 11.9151 44.0505 12.4892C44.2201 12.6761 44.4532 12.7711 44.6872 12.7711C44.8931 12.7711 45.0999 12.6974 45.2645 12.5481C45.6158 12.2291 45.6423 11.6856 45.3233 11.3341C44.7626 10.7162 44.1628 10.1206 43.5409 9.56399C43.1872 9.24752 42.6439 9.2776 42.3274 9.63123C42.011 9.98487 42.0409 10.5282 42.3947 10.8448Z" fill="black"/>
<path d="M27.5 11.1719C27.9746 11.1719 28.3594 10.7871 28.3594 10.3125V7.73438C28.3594 7.25979 27.9746 6.875 27.5 6.875C27.0254 6.875 26.6406 7.25979 26.6406 7.73438V10.3125C26.6406 10.7871 27.0254 11.1719 27.5 11.1719Z" fill="black"/>
<path d="M26.6406 44.6875V47.2656C26.6406 47.7402 27.0254 48.125 27.5 48.125C27.9746 48.125 28.3594 47.7402 28.3594 47.2656V44.6875C28.3594 44.2129 27.9746 43.8281 27.5 43.8281C27.0254 43.8281 26.6406 44.2129 26.6406 44.6875Z" fill="black"/>
<path d="M11.1719 27.5C11.1719 27.0254 10.7871 26.6406 10.3125 26.6406H7.73438C7.25979 26.6406 6.875 27.0254 6.875 27.5C6.875 27.9746 7.25979 28.3594 7.73438 28.3594H10.3125C10.7871 28.3594 11.1719 27.9746 11.1719 27.5Z" fill="black"/>
<path d="M43.8281 27.5C43.8281 27.9746 44.2129 28.3594 44.6875 28.3594H47.2656C47.7402 28.3594 48.125 27.9746 48.125 27.5C48.125 27.0254 47.7402 26.6406 47.2656 26.6406H44.6875C44.2129 26.6406 43.8281 27.0254 43.8281 27.5Z" fill="black"/>
<path d="M19.6506 12.1855L18.3615 9.95276C18.1242 9.54165 17.5986 9.40104 17.1876 9.63822C16.7766 9.87552 16.6358 10.4011 16.8731 10.8121L18.1621 13.0449C18.3213 13.3205 18.6102 13.4747 18.9072 13.4747C19.053 13.4747 19.2008 13.4375 19.3362 13.3594C19.747 13.1221 19.8879 12.5965 19.6506 12.1855Z" fill="black"/>
<path d="M36.8381 41.9551C36.6008 41.5441 36.0751 41.4035 35.6642 41.6406C35.2532 41.8779 35.1123 42.4035 35.3496 42.8145L36.6387 45.0473C36.7979 45.3229 37.0868 45.4771 37.3838 45.4771C37.5296 45.4771 37.6774 45.4399 37.8127 45.3618C38.2237 45.1245 38.3646 44.5989 38.1273 44.1879L36.8381 41.9551Z" fill="black"/>
<path d="M10.3832 38.2423C10.529 38.2423 10.6768 38.2051 10.8121 38.127L13.0449 36.838C13.4559 36.6007 13.5967 36.0751 13.3594 35.6641C13.1221 35.2531 12.5964 35.1125 12.1855 35.3495L9.95275 36.6386C9.54175 36.8759 9.40092 37.4015 9.63822 37.8125C9.79731 38.0882 10.0862 38.2423 10.3832 38.2423Z" fill="black"/>
<path d="M42.3856 19.7657C42.5314 19.7657 42.6792 19.7286 42.8146 19.6505L45.0473 18.3614C45.4583 18.1241 45.5992 17.5985 45.3619 17.1875C45.1246 16.7765 44.599 16.6359 44.188 16.873L41.9552 18.162C41.5442 18.3993 41.4034 18.9249 41.6407 19.3359C41.7999 19.6116 42.0887 19.7657 42.3856 19.7657Z" fill="black"/>
<path d="M37.8126 9.63823C37.4016 9.40083 36.876 9.54166 36.6387 9.95276L35.3496 12.1855C35.1123 12.5965 35.2532 13.1221 35.6642 13.3594C35.7995 13.4376 35.9472 13.4747 36.0931 13.4747C36.3901 13.4747 36.679 13.3205 36.8382 13.0449L38.1273 10.8121C38.3645 10.4011 38.2236 9.87552 37.8126 9.63823Z" fill="black"/>
<path d="M19.336 41.6406C18.9251 41.4033 18.3994 41.5441 18.1621 41.9551L16.8731 44.1879C16.6358 44.5989 16.7766 45.1245 17.1876 45.3618C17.323 45.44 17.4707 45.4771 17.6165 45.4771C17.9136 45.4771 18.2024 45.3229 18.3616 45.0473L19.6507 42.8145C19.8879 42.4035 19.747 41.8779 19.336 41.6406Z" fill="black"/>
<path d="M41.9547 36.838L44.1874 38.127C44.3228 38.2052 44.4705 38.2423 44.6164 38.2423C44.9134 38.2423 45.2023 38.0882 45.3615 37.8125C45.5987 37.4015 45.4579 36.8759 45.0469 36.6386L42.8142 35.3495C42.4032 35.1121 41.8775 35.2531 41.6402 35.6641C41.4028 36.0751 41.5437 36.6007 41.9547 36.838Z" fill="black"/>
<path d="M13.0449 18.162L10.8121 16.873C10.4011 16.6356 9.87551 16.7765 9.63822 17.1875C9.40092 17.5985 9.54175 18.1241 9.95275 18.3614L12.1855 19.6505C12.3209 19.7287 12.4686 19.7657 12.6144 19.7657C12.9115 19.7657 13.2003 19.6116 13.3595 19.3359C13.5967 18.9249 13.4559 18.3993 13.0449 18.162Z" fill="black"/>
<path d="M33.4826 38.7203C33.6283 38.7203 33.7761 38.6832 33.9115 38.6051C34.3225 38.3678 34.4633 37.8421 34.226 37.4312L29.4586 29.1737C29.8444 28.7229 30.0781 28.1384 30.0781 27.5C30.0781 26.3797 29.3596 25.4244 28.3594 25.0697V13.75C28.3594 13.2754 27.9746 12.8906 27.5 12.8906C27.0254 12.8906 26.6406 13.2754 26.6406 13.75V25.0697C25.6404 25.4244 24.9219 26.3797 24.9219 27.5C24.9219 28.9216 26.0784 30.0781 27.5 30.0781C27.6608 30.0781 27.8181 30.0625 27.9708 30.0343L32.7376 38.2905C32.8968 38.5662 33.1856 38.7203 33.4826 38.7203ZM26.6406 27.5C26.6406 27.0262 27.0262 26.6406 27.5 26.6406C27.9738 26.6406 28.3594 27.0262 28.3594 27.5C28.3594 27.9738 27.9738 28.3594 27.5 28.3594C27.0262 28.3594 26.6406 27.9738 26.6406 27.5Z" fill="black"/>
</svg>
