<svg width="51" height="51" viewBox="0 0 51 51"  xmlns="http://www.w3.org/2000/svg">
<path d="M38.2095 0H12.75C5.74762 0 0 5.74762 0 12.7905V38.25C0 45.2524 5.74762 51 12.75 51H38.2095C45.2524 51 51 45.2524 51 38.2095V12.7905C51 5.74762 45.2524 0 38.2095 0ZM24.1238 10.4833C24.2048 9.22857 25.3786 9.67381 25.9857 9.59286C33.5952 9.83571 40.1524 16.6762 40.0714 24.0429C40.0714 24.7714 40.3143 25.8238 39.2214 25.8238C38.169 25.8238 38.4524 24.731 38.331 24.0024C37.319 16.1905 33.6762 12.5071 25.7429 11.2929C25.0952 11.2119 24.0833 11.3333 24.1238 10.4833ZM35.4976 24.3667C34.2833 24.5286 34.5262 23.4762 34.4048 22.7881C33.5952 18.0119 31.8952 16.2714 26.9976 15.219C26.269 15.0571 25.1357 15.1786 25.3381 14.0857C25.5 13.0333 26.5119 13.3976 27.281 13.4786C32.1786 14.0452 36.1857 18.2143 36.1452 22.7881C36.0643 23.2738 36.3881 24.2048 35.4976 24.3667ZM32.4619 21.8571C32.4619 22.5048 32.381 23.1119 31.6524 23.1929C31.1262 23.2738 30.8024 22.8286 30.7214 22.3024C30.519 20.3595 29.4667 19.1857 27.4429 18.8619C26.8357 18.781 26.269 18.5786 26.5524 17.769C26.7548 17.2429 27.2405 17.1619 27.7667 17.1619C29.9524 17.1214 32.4619 19.6714 32.4619 21.8571ZM40.1524 36.7929C39.3024 39.1 36.4286 41.4476 33.9595 41.4071C33.5952 41.3262 32.9071 41.2048 32.3 40.9619C21.4524 36.3881 13.5595 28.8595 9.10714 18.0929C7.60952 14.4905 9.1881 11.4143 12.9524 10.2C13.6405 9.95714 14.2881 9.95714 14.9762 10.2C16.5952 10.7667 20.6833 16.3119 20.7643 17.931C20.8452 19.1857 19.9548 19.8738 19.1048 20.4405C17.4452 21.5333 17.4452 22.9095 18.1738 24.4881C19.7524 27.969 22.4643 30.3976 25.9857 31.9357C27.2405 32.5024 28.4952 32.4619 29.3452 31.1667C30.8833 28.8595 32.7857 28.981 34.85 30.3976C35.9024 31.1262 36.9548 31.8143 37.9262 32.5833C39.2619 33.6762 40.9619 34.5667 40.1524 36.7929Z" />
</svg>
