<svg width="140" height="125" viewBox="0 0 140 125" fill="none" xmlns="http://www.w3.org/2000/svg">
<g clip-path="url(#clip0)">
<path d="M129.283 9.60311C129.247 9.57137 129.21 9.54134 129.175 9.5096C129.171 9.50643 129.167 9.50325 129.164 9.50008C111.102 -6.47652 78.0439 -1.65937 54.4866 19.3741C50.971 22.513 47.7986 25.8971 45.0202 29.4547C30.9573 27.5934 18.5796 30.7201 10.0784 38.3107C10.045 38.3405 10.0136 38.3715 9.98048 38.4015C9.97392 38.4076 9.96708 38.4135 9.96079 38.4198C-7.07522 53.8022 -1.67153 84.7825 21.6782 105.63C45.3207 126.74 80.064 131.176 97.0757 115.987C97.0965 115.969 97.1164 115.949 97.1372 115.93C97.1481 115.92 97.1594 115.91 97.17 115.9C105.602 108.312 109.071 97.2976 106.995 84.7888C110.979 82.3081 114.769 79.4758 118.285 76.3366C141.965 55.1938 147.264 25.6576 129.283 9.60311ZM60.2865 24.5526C78.5276 8.26594 102.534 3.11139 117.824 10.9259L117.639 10.9823C108.535 13.7498 100.475 18.5277 94.3315 24.7999C88.4903 30.7633 84.3789 38.0861 82.3819 46.0414C73.7367 39.0536 63.8568 33.9498 53.7363 31.2113C55.7341 28.8893 57.9246 26.6612 60.2865 24.5526ZM27.4778 100.452C10.2826 85.0989 3.46746 62.7612 11.629 48.7226C17.931 65.2329 33.7483 77.5947 52.9122 80.9858C69.4183 83.9067 82.9354 94.5876 88.1889 108.861L89.4438 112.271C74.9548 122.649 46.7844 117.69 27.4778 100.452ZM95.6205 105.648C89.207 89.3342 73.5524 77.1723 54.5063 73.802C38.2009 70.9165 24.7442 60.3964 19.387 46.3468L17.7273 41.9938C32.7844 30.9376 60.073 36.3434 79.6757 53.8459C89.164 62.3176 96.548 73.3066 98.7445 85.074C100.214 92.9475 99.1043 100.039 95.6205 105.648ZM105.027 77.0066C102.062 68.2722 96.6212 59.7394 89.1933 52.2079C89.5531 51.0439 89.8717 49.8664 90.1339 48.6857C93.4026 33.9608 104.391 22.7452 120.282 17.9149L125.162 16.4317C137.505 29.7382 132.245 53.5153 112.484 71.1586C110.123 73.2668 107.627 75.2229 105.027 77.0066Z" fill="black"/>
</g>
<defs>
<clipPath id="clip0">
<rect width="140" height="125" fill="white"/>
</clipPath>
</defs>
</svg>
