<svg width="140" height="125" viewBox="0 0 140 125" fill="none" xmlns="http://www.w3.org/2000/svg">
<path d="M129.062 106.297V91.7969C129.062 90.7188 128.082 89.8438 126.875 89.8438H107.188V52.0078C109.624 51.5898 112.123 51.7031 114.503 52.4141C116.43 52.9863 118.433 53.2715 120.442 53.2715C121.868 53.2715 123.29 53.1113 124.688 52.8242V83.9844C124.688 85.0625 125.668 85.9375 126.875 85.9375C128.082 85.9375 129.062 85.0625 129.062 83.9844V13.6719C129.062 8.28711 124.156 3.90625 118.125 3.90625H105C103.793 3.90625 102.812 4.78125 102.812 5.85938V11.7188H28.84C29.7456 9.45117 32.1519 7.8125 35 7.8125H96.25C97.4575 7.8125 98.4375 6.9375 98.4375 5.85938C98.4375 4.78125 97.4575 3.90625 96.25 3.90625H35C28.9691 3.90625 24.0625 8.28711 24.0625 13.6719V44.9219C24.0625 45.4395 24.2922 45.9375 24.7034 46.3027L32.8125 53.543V60.5469H28.5491L13.3109 59.1855C11.0316 58.9844 8.74781 59.6523 7.04812 61.0254C5.34844 62.3984 4.375 64.3613 4.375 66.4062C4.375 68.4512 5.34844 70.4121 7.04812 71.7852C8.54656 72.9961 10.5 73.6602 12.5059 73.6602C12.7728 73.6602 13.0419 73.6484 13.3109 73.625L28.5491 72.2656H37.1875C37.1875 72.6875 37.3406 73.0996 37.625 73.4375C39.6047 75.7969 42.6366 77.1484 45.9375 77.1484C49.2384 77.1484 52.2703 75.7969 54.25 73.4375C54.5344 73.0996 54.6875 72.6875 54.6875 72.2656V64.4531H56.875C58.0825 64.4531 59.0625 63.5781 59.0625 62.5V53.543L63.4375 49.6367V105.469H56.8181C58.2072 103.832 59.0625 101.816 59.0625 99.6094V83.9844C59.0625 82.9062 58.0825 82.0312 56.875 82.0312C55.6675 82.0312 54.6875 82.9062 54.6875 83.9844V99.6094C54.6875 102.84 51.7431 105.469 48.125 105.469H39.375C35.7569 105.469 32.8125 102.84 32.8125 99.6094V85.9375H48.125C49.3325 85.9375 50.3125 85.0625 50.3125 83.9844C50.3125 82.9062 49.3325 82.0312 48.125 82.0312H26.25C20.2191 82.0312 15.3125 86.4121 15.3125 91.7969C15.3125 97.1816 20.2191 101.562 26.25 101.562H28.6584C29.0084 103.092 29.7937 104.467 30.8459 105.646C25.7534 106.479 21.875 110.451 21.875 115.234V119.141C21.875 120.219 22.855 121.094 24.0625 121.094H72.1875C73.395 121.094 74.375 120.219 74.375 119.141C74.375 118.062 73.395 117.188 72.1875 117.188H26.25V115.234C26.25 112.004 29.1944 109.375 32.8125 109.375H124.688C128.306 109.375 131.25 112.004 131.25 115.234V117.188H80.9375C79.73 117.188 78.75 118.062 78.75 119.141C78.75 120.219 79.73 121.094 80.9375 121.094H133.438C134.645 121.094 135.625 120.219 135.625 119.141V115.234C135.625 111.24 132.919 107.809 129.062 106.297ZM19.6875 91.7969C19.6875 88.5664 22.6319 85.9375 26.25 85.9375H28.4375V97.6562H26.25C22.6319 97.6562 19.6875 95.0273 19.6875 91.7969ZM115.887 48.707C113.059 47.8652 110.097 47.6367 107.188 48.0176V23.4375H124.688V48.748C121.804 49.5293 118.735 49.5547 115.887 48.707ZM107.188 7.8125H118.125C121.743 7.8125 124.688 10.4414 124.688 13.6719V19.5312H107.188V7.8125ZM12.8756 69.7402C11.8147 69.8359 10.78 69.5352 9.98375 68.8906C9.1875 68.2461 8.75 67.3652 8.75 66.4062C8.75 65.4473 9.1875 64.5664 9.98375 63.9238C10.6838 63.3574 11.5609 63.0566 12.4906 63.0566C12.6197 63.0566 12.7466 63.0625 12.8756 63.0742L26.25 64.2676V68.5449L12.8756 69.7402ZM30.625 68.3594V64.4531H37.1875V68.3594H30.625ZM50.3125 71.5586C48.0484 73.7129 43.8266 73.7129 41.5625 71.5586V64.4531H50.3125V71.5586ZM54.6875 60.5469H37.1875V54.6875H54.6875V60.5469ZM55.9694 50.7812H35.9056L31.5306 46.875H60.3444L55.9694 50.7812ZM96.25 42.9688H28.4375V15.625H102.812V105.469H67.8125V46.875H96.25C97.4575 46.875 98.4375 46 98.4375 44.9219C98.4375 43.8438 97.4575 42.9688 96.25 42.9688ZM107.188 105.469V93.75H124.688V105.469H107.188Z" fill="black"/>
<path d="M54.6875 21.4844H47.2894C45.7516 20.2832 43.7631 19.5312 41.5625 19.5312C36.7369 19.5312 32.8125 23.0352 32.8125 27.3438C32.8125 31.6523 36.7369 35.1562 41.5625 35.1562C43.7609 35.1562 45.7494 34.4043 47.2894 33.2031H54.6875C58.3056 33.2031 61.25 30.5742 61.25 27.3438C61.25 24.1133 58.3056 21.4844 54.6875 21.4844ZM41.5625 31.25C39.1497 31.25 37.1875 29.498 37.1875 27.3438C37.1875 25.1895 39.1497 23.4375 41.5625 23.4375C43.9753 23.4375 45.9375 25.1895 45.9375 27.3438C45.9375 29.498 43.9753 31.25 41.5625 31.25ZM54.6875 29.2969H50.0019C50.1856 28.668 50.3125 28.0215 50.3125 27.3438C50.3125 26.666 50.1856 26.0195 50.0019 25.3906H54.6875C55.8928 25.3906 56.875 26.2676 56.875 27.3438C56.875 28.4199 55.8928 29.2969 54.6875 29.2969Z" fill="black"/>
<path d="M94.0625 56.6406H78.75C77.5425 56.6406 76.5625 57.5156 76.5625 58.5938C76.5625 59.6719 77.5425 60.5469 78.75 60.5469H94.0625C95.27 60.5469 96.25 59.6719 96.25 58.5938C96.25 57.5156 95.27 56.6406 94.0625 56.6406Z" fill="black"/>
<path d="M94.0625 64.4531H78.75C77.5425 64.4531 76.5625 65.3281 76.5625 66.4062C76.5625 67.4844 77.5425 68.3594 78.75 68.3594H94.0625C95.27 68.3594 96.25 67.4844 96.25 66.4062C96.25 65.3281 95.27 64.4531 94.0625 64.4531Z" fill="black"/>
<path d="M94.0625 72.2656H78.75C77.5425 72.2656 76.5625 73.1406 76.5625 74.2188C76.5625 75.2969 77.5425 76.1719 78.75 76.1719H94.0625C95.27 76.1719 96.25 75.2969 96.25 74.2188C96.25 73.1406 95.27 72.2656 94.0625 72.2656Z" fill="black"/>
</svg>
