<svg width="140" height="125" viewBox="0 0 140 125" fill="none" xmlns="http://www.w3.org/2000/svg">
<g clip-path="url(#clip0)">
<path d="M117.031 85.4285C129.696 85.4285 140 76.2288 140 64.9207C140 53.6126 129.696 44.4129 117.031 44.4129H76.2888C74.7789 44.4129 73.5544 45.5059 73.5544 46.8543C73.5544 48.2027 74.7789 49.2957 76.2888 49.2957H108.747V61.6683C108.747 75.8004 102.022 89.2188 90.2658 98.6327H37.4533C37.5339 98.5628 37.6165 98.4952 37.6964 98.4242C40.8606 95.599 42.8518 92.033 43.3029 88.3829C43.7787 84.5311 42.5083 81.0413 39.7253 78.5565C35.3188 74.6226 28.1624 74.3079 22.05 77.2972C20.1742 72.2569 19.2216 67.0138 19.2216 61.6683V49.2957H51.6797C53.1899 49.2957 54.4141 48.2027 54.4141 46.8543C54.4141 45.5059 53.1899 44.4129 51.6797 44.4129H16.4869C14.977 44.4129 13.7525 45.5059 13.7525 46.8543V61.6683C13.7525 68.0872 15.0021 74.3719 17.4623 80.378C14.3046 83.2017 12.3173 86.7635 11.8669 90.409C11.4857 93.4928 12.2268 96.3429 13.9647 98.6327H2.73438C1.22418 98.6327 0 99.7257 0 101.074C0 108.882 7.11457 115.234 15.8594 115.234H24.3373C25.6077 120.799 31.1322 125 37.7344 125H90.2341C96.8365 125 102.361 120.799 103.631 115.234H112.109C120.854 115.234 127.968 108.882 127.968 101.074C127.968 99.7257 126.744 98.6327 125.234 98.6327H98.0476C102.138 94.6717 105.521 90.2183 108.117 85.4288H117.031V85.4285ZM37.8667 87.8475C37.5517 90.3983 36.1178 92.9283 33.8289 94.9715V94.9718C31.5405 97.015 28.7071 98.2952 25.85 98.5767C24.8229 98.6781 23.844 98.6407 22.9368 98.4759C22.6532 95.4344 24.8533 92.5523 28.2718 91.7591C32.7849 90.7122 36.0927 87.5999 37.2627 83.8519C37.8364 85.0128 38.0486 86.3761 37.8667 87.8475ZM17.3023 90.9447C17.6176 88.3939 19.0515 85.8638 21.3402 83.8206C24.0365 81.4132 27.4143 80.1449 30.4374 80.1449C31.0532 80.1449 31.6539 80.1991 32.2314 80.3055C32.5213 83.3512 30.3198 86.2393 26.897 87.0333C22.3841 88.0802 19.0764 91.1925 17.9063 94.9408C17.3329 93.7791 17.1205 92.4161 17.3023 90.9447ZM112.109 110.351H101.172C99.6617 110.351 98.4372 111.444 98.4372 112.793C98.4372 116.831 94.7573 120.117 90.2341 120.117H37.7344C33.2112 120.117 29.5312 116.831 29.5312 112.793C29.5312 111.444 28.3068 110.351 26.7969 110.351H15.8594C11.0759 110.351 7.03691 107.451 5.83379 103.515H122.135C120.932 107.451 116.893 110.351 112.109 110.351ZM117.031 49.2957C126.681 49.2957 134.531 56.305 134.531 64.9207C134.531 73.5365 126.681 80.5457 117.031 80.5457H110.442C111.233 78.6312 111.906 76.6756 112.453 74.6864H117.031C123.062 74.6864 127.969 70.3055 127.969 64.9207C127.969 59.536 123.062 55.1551 117.031 55.1551H114.216V49.2957H117.031ZM114.216 60.0379H117.031C120.047 60.0379 122.5 62.2284 122.5 64.9207C122.5 67.6131 120.047 69.8035 117.031 69.8035H113.529C113.98 67.1292 114.216 64.4115 114.216 61.6683V60.0379Z" fill="black"/>
<path d="M84.1087 34.1622C83.0409 35.1156 83.0409 36.6615 84.1087 37.6151C84.6427 38.0919 85.3424 38.3302 86.0421 38.3302C86.7421 38.3302 87.4416 38.0919 87.9756 37.6151C92.804 33.3038 92.804 26.2891 87.9756 21.9781C86.6694 20.8121 85.95 19.2616 85.95 17.6124C85.95 15.9632 86.6694 14.4129 87.9756 13.2467C89.0434 12.2933 89.0434 10.7474 87.9756 9.79403C86.9081 8.84066 85.1772 8.84066 84.1084 9.79403C81.7694 11.8824 80.481 14.659 80.481 17.6124C80.481 20.5658 81.7694 23.3424 84.1084 25.4307C86.8047 27.838 86.8047 31.7547 84.1087 34.1622Z" fill="black"/>
<path d="M39.9929 34.1622C38.9251 35.1156 38.9251 36.6615 39.9929 37.6151C40.5269 38.0919 41.2266 38.3302 41.9264 38.3302C42.6261 38.3302 43.3258 38.0919 43.8598 37.6151C48.6882 33.3038 48.6882 26.2892 43.8598 21.9781C41.1637 19.5709 41.1637 15.6539 43.8598 13.2467C44.9276 12.2933 44.9276 10.7474 43.8598 9.79379C42.7918 8.84042 41.0609 8.84042 39.9926 9.79379C35.1642 14.1048 35.1642 21.1197 39.9926 25.4308C42.689 27.838 42.689 31.7547 39.9929 34.1622Z" fill="black"/>
<path d="M62.0508 34.1622C60.983 35.1156 60.983 36.6615 62.0508 37.6148C62.5848 38.0916 63.2842 38.3299 63.9842 38.3299C64.6842 38.3299 65.3837 38.0914 65.9177 37.6148C72.1477 32.0523 72.1477 23.0013 65.9177 17.4386C63.9326 15.6661 62.8394 13.3097 62.8394 10.8031C62.8394 8.29647 63.9326 5.94002 65.9177 4.16756C66.9855 3.21419 66.9855 1.6683 65.9177 0.714928C64.8499 -0.238441 63.1191 -0.238441 62.0505 0.714928C59.0326 3.40951 57.3706 6.99227 57.3706 10.8031C57.3706 14.6139 59.0326 18.1966 62.0505 20.8912C66.1485 24.5501 66.1485 30.5033 62.0508 34.1622Z" fill="black"/>
<path d="M63.9844 44.4139C63.2652 44.4139 62.5598 44.6727 62.0512 45.1268C61.5426 45.5833 61.25 46.2108 61.25 46.8553C61.25 47.4974 61.5423 48.1273 62.0512 48.5814C62.5598 49.0355 63.2652 49.2967 63.9844 49.2967C64.7035 49.2967 65.409 49.0355 65.9173 48.5814C66.4259 48.1273 66.7188 47.4974 66.7188 46.8553C66.7188 46.2108 66.4262 45.5833 65.9173 45.1268C65.409 44.6727 64.7035 44.4139 63.9844 44.4139Z" fill="black"/>
</g>
<defs>
<clipPath id="clip0">
<rect width="140" height="125" fill="white"/>
</clipPath>
</defs>
</svg>
