<svg width="51" height="51" viewBox="0 0 51 51"  xmlns="http://www.w3.org/2000/svg">
<g clip-path="url(#clip0)">
<path d="M50.9501 14.9941C50.8306 12.2843 50.3924 10.4213 49.7647 8.80703C49.1171 7.0935 48.1208 5.55937 46.8155 4.28404C45.5402 2.98887 43.9959 1.98246 42.3022 1.34499C40.6786 0.71725 38.8253 0.279039 36.1155 0.159562C33.3855 0.0299665 32.5188 0 25.5946 0C18.6704 0 17.8037 0.0299665 15.0837 0.149443C12.3739 0.26892 10.5109 0.70752 8.897 1.33487C7.18308 1.98246 5.64895 2.97875 4.37362 4.28404C3.07845 5.55937 2.07243 7.10361 1.43457 8.7973C0.806834 10.4213 0.368623 12.2742 0.249146 14.984C0.119551 17.7141 0.0895844 18.5808 0.0895844 25.505C0.0895844 32.4292 0.119551 33.2959 0.239028 36.0158C0.358504 38.7257 0.797104 40.5886 1.42484 42.2029C2.07243 43.9165 3.07845 45.4506 4.37362 46.7259C5.64895 48.0211 7.1932 49.0275 8.88689 49.665C10.5109 50.2927 12.3638 50.7309 15.074 50.8504C17.7935 50.9703 18.6606 50.9998 25.5848 50.9998C32.509 50.9998 33.3757 50.9703 36.0957 50.8504C38.8055 50.7309 40.6685 50.2927 42.2824 49.665C45.7098 48.3398 48.4197 45.63 49.7448 42.2029C50.3722 40.5789 50.8108 38.7257 50.9302 36.0158C51.0497 33.2959 51.0797 32.4292 51.0797 25.505C51.0797 18.5808 51.0696 17.7141 50.9501 14.9941ZM46.3574 35.8166C46.2477 38.3073 45.8293 39.6523 45.4806 40.5489C44.6237 42.7707 42.8603 44.5341 40.6385 45.3911C39.7418 45.7398 38.3871 46.1581 35.9061 46.2675C33.2162 46.3873 32.4094 46.4169 25.6047 46.4169C18.8 46.4169 17.9831 46.3873 15.3028 46.2675C12.8121 46.1581 11.4671 45.7398 10.5705 45.3911C9.46481 44.9824 8.4584 44.3348 7.64153 43.488C6.79468 42.661 6.14709 41.6647 5.73846 40.5591C5.38976 39.6624 4.9714 38.3073 4.86204 35.8267C4.74217 33.1367 4.71259 32.3296 4.71259 25.5248C4.71259 18.7201 4.74217 17.9032 4.86204 15.2234C4.9714 12.7326 5.38976 11.3877 5.73846 10.491C6.14709 9.38496 6.79468 8.37894 7.65164 7.56167C8.47825 6.71483 9.47454 6.06724 10.5806 5.659C11.4772 5.31029 12.8323 4.89193 15.3129 4.78218C18.0029 4.66271 18.8101 4.63274 25.6144 4.63274C32.4292 4.63274 33.236 4.66271 35.9163 4.78218C38.407 4.89193 39.752 5.31029 40.6486 5.659C41.7543 6.06724 42.7607 6.71483 43.5776 7.56167C44.4244 8.38867 45.072 9.38496 45.4806 10.491C45.8293 11.3877 46.2477 12.7424 46.3574 15.2234C46.4769 17.9133 46.5069 18.7201 46.5069 25.5248C46.5069 32.3296 46.4769 33.1266 46.3574 35.8166Z" />
<path d="M25.5946 12.4038C18.3617 12.4038 12.4934 18.2718 12.4934 25.505C12.4934 32.7382 18.3617 38.6062 25.5946 38.6062C32.8278 38.6062 38.6958 32.7382 38.6958 25.505C38.6958 18.2718 32.8278 12.4038 25.5946 12.4038ZM25.5946 34.0034C20.9023 34.0034 17.0962 30.1976 17.0962 25.505C17.0962 20.8123 20.9023 17.0066 25.5946 17.0066C30.2872 17.0066 34.093 20.8123 34.093 25.505C34.093 30.1976 30.2872 34.0034 25.5946 34.0034Z" />
<path d="M42.2727 11.8858C42.2727 13.5748 40.9032 14.9443 39.2138 14.9443C37.5247 14.9443 36.1552 13.5748 36.1552 11.8858C36.1552 10.1964 37.5247 8.82727 39.2138 8.82727C40.9032 8.82727 42.2727 10.1964 42.2727 11.8858Z" />
</g>
<defs>
<clipPath id="clip0">
<rect width="51" height="51"/>
</clipPath>
</defs>
</svg>
