<svg width="55" height="55" viewBox="0 0 55 55" fill="none" xmlns="http://www.w3.org/2000/svg">
<g clip-path="url(#clip0_11:63)">
<path d="M52.1794 9.16663H2.82058C1.26919 9.16663 0 10.4358 0 11.9871V43.0128C0 44.564 1.26919 45.8334 2.82058 45.8334H52.1795C53.7307 45.8334 55.0001 44.5642 55.0001 43.0128V11.9871C55 10.4358 53.7308 9.16663 52.1794 9.16663ZM51.121 11.2819L29.1225 27.7821C28.727 28.0831 28.1198 28.2714 27.4999 28.2686C26.8801 28.2714 26.273 28.0831 25.8774 27.7821L3.8789 11.2819H51.121ZM39.3701 28.8708L51.3573 43.6786C51.3694 43.6934 51.3841 43.7047 51.3969 43.7181H3.60314C3.61582 43.7041 3.63064 43.6934 3.64268 43.6786L15.6299 28.8708C15.9972 28.4167 15.9275 27.751 15.4726 27.3829C15.0185 27.0156 14.3529 27.0852 13.9855 27.5394L2.11535 42.2026V12.604L24.6088 29.4742C25.4544 30.1039 26.483 30.3811 27.4998 30.3838C28.5151 30.3817 29.5447 30.1045 30.3907 29.4742L52.8842 12.604V42.2024L41.0144 27.5394C40.647 27.0853 39.9807 27.0155 39.5273 27.3829C39.0725 27.7502 39.0026 28.4167 39.3701 28.8708Z" fill="black"/>
</g>
<defs>
<clipPath id="clip0_11:63">
<rect width="55" height="55" fill="white"/>
</clipPath>
</defs>
</svg>
