<svg width="51" height="51" viewBox="0 0 51 51" fill="none" xmlns="http://www.w3.org/2000/svg">
<g clip-path="url(#clip0)">
<path d="M47.7502 0H3.257C1.45755 0 0 1.45755 0 3.2534V47.7466C0 49.5424 1.45755 51 3.257 51H47.7466C49.5424 51 51 49.5424 51 47.7466V3.2534C51.0036 1.45396 49.546 0 47.7502 0ZM42.3051 31.0765C43.2372 32.0266 45.2598 33.6209 44.8927 35.244C44.5544 36.734 42.3303 36.1905 40.1709 36.2769C37.7057 36.3813 36.2445 36.4353 34.7618 35.244C34.0636 34.679 33.6533 34.0096 32.9839 33.261C32.3757 32.5844 31.6091 31.3716 30.5655 31.4184C28.6904 31.512 29.277 34.1248 28.6112 35.9062C18.1888 37.5473 14.0033 31.1089 10.3108 24.8612C8.52219 21.8345 5.93818 15.3349 5.93818 15.3349L13.3087 15.3097C13.3087 15.3097 15.6732 19.6104 16.2994 20.7189C16.8321 21.6618 17.4187 22.4103 18.0233 23.2525C18.5307 23.9507 19.3333 25.3183 20.2114 25.2067C21.6402 25.0231 21.8993 19.4808 21.014 17.6238C20.6613 16.8716 19.8155 16.6089 18.941 16.3534C19.2361 14.4892 27.2077 14.1005 28.4961 15.5472C30.3675 17.649 27.2005 23.5008 29.7629 25.2067C33.3618 23.3209 36.4353 15.4249 36.4353 15.4249L45.0654 15.4789C45.0654 15.4789 43.7158 19.7472 42.3015 21.6402C41.4773 22.7486 38.7422 25.2175 38.8501 27.0493C38.9365 28.4997 41.1606 29.9105 42.3051 31.0765Z" fill="white"/>
</g>
<defs>
<clipPath id="clip0">
<rect width="51" height="51" fill="white"/>
</clipPath>
</defs>
</svg>
